<svg xmlns="http://www.w3.org/2000/svg" viewBox="0 0 24 24" fill="currentColor" width="24" height="24">
    <path d="M12 4V1L8 5l4 4V6c3.31 0 6 2.69 6 6 0 1.49-.56 2.84-1.47 3.89l1.42 1.42C19.07 15.68 20 13.95 20 12c0-4.42-3.58-8-8-8zm-6.88 1.94L4 4.12l-2.83 2.83L4 9.77l1.06-1.06L4 7.65l1.12-1.12zm1.06 11.3C5.56 15.84 6 14.49 6 13c0-3.31 2.69-6 6-6v-3l4 4-4 4v-3c-2.21 0-4 1.79-4 4 0 1.49.56 2.84 1.47 3.89l-1.42 1.42C5.93 18.32 5 16.59 5 15zm9.88 1.06L16 20.88l2.83-2.83L16 15.23l-1.06 1.06L16 17.35l-1.12 1.12zm-3.06-1.12l1.12-1.12-1.12-1.12-1.12 1.12 1.12 1.12zm-4-1.12l1.12-1.12-1.12-1.12-1.12 1.12 1.12 1.12z"/>
</svg>
