<svg xmlns="http://www.w3.org/2000/svg" viewBox="0 0 24 24" fill="currentColor" width="24" height="24">
    <path d="M7.77 3.69L2.14 8.85a1 1 0 0 0 0 1.42l5.63 5.16c.29.27.67.41 1.07.41.78 0 1.41-.64 1.41-1.41V6.52c0-.77-.63-1.41-1.41-1.41-.4 0-.78.14-1.07.41zm8.46 0c-.29-.27-.67-.41-1.07-.41-.78 0-1.41.64-1.41 1.41v7.9c0 .77.63 1.41 1.41 1.41.4 0 .78-.14 1.07-.41l5.63-5.16c.39-.36.39-.95 0-1.42L16.23 3.69zM12 20.5c-1.38 0-2.5-1.12-2.5-2.5S10.62 15.5 12 15.5s2.5 1.12 2.5 2.5S13.38 20.5 12 20.5z"/>
</svg>
